<svg width="1920" height="1080" viewBox="0 0 1920 1080" fill="none" xmlns="http://www.w3.org/2000/svg">
<line x1="58" y1="60" x2="58" y2="76" stroke="#E6122B" stroke-opacity="0.5" stroke-width="2"/>
<line x1="66" y1="68" x2="50" y2="68" stroke="#E6122B" stroke-opacity="0.5" stroke-width="2"/>
<line x1="1042" y1="60" x2="1042" y2="76" stroke="#E6122B" stroke-opacity="0.5" stroke-width="2"/>
<line x1="1050" y1="68" x2="1034" y2="68" stroke="#E6122B" stroke-opacity="0.5" stroke-width="2"/>
<line x1="58" y1="356" x2="58" y2="372" stroke="#E6122B" stroke-opacity="0.5" stroke-width="2"/>
<line x1="66" y1="364" x2="50" y2="364" stroke="#E6122B" stroke-opacity="0.5" stroke-width="2"/>
<line x1="1042" y1="356" x2="1042" y2="372" stroke="#E6122B" stroke-opacity="0.5" stroke-width="2"/>
<line x1="1050" y1="364" x2="1034" y2="364" stroke="#E6122B" stroke-opacity="0.5" stroke-width="2"/>
<line x1="58" y1="208" x2="58" y2="224" stroke="#E6122B" stroke-opacity="0.5" stroke-width="2"/>
<line x1="66" y1="216" x2="50" y2="216" stroke="#E6122B" stroke-opacity="0.5" stroke-width="2"/>
<line x1="1042" y1="208" x2="1042" y2="224" stroke="#E6122B" stroke-opacity="0.5" stroke-width="2"/>
<line x1="1050" y1="216" x2="1034" y2="216" stroke="#E6122B" stroke-opacity="0.5" stroke-width="2"/>
<line x1="58" y1="504" x2="58" y2="520" stroke="#E6122B" stroke-opacity="0.5" stroke-width="2"/>
<line x1="66" y1="512" x2="50" y2="512" stroke="#E6122B" stroke-opacity="0.5" stroke-width="2"/>
<line x1="58" y1="652" x2="58" y2="668" stroke="#E6122B" stroke-opacity="0.5" stroke-width="2"/>
<line x1="66" y1="660" x2="50" y2="660" stroke="#E6122B" stroke-opacity="0.5" stroke-width="2"/>
<line x1="58" y1="800" x2="58" y2="816" stroke="#E6122B" stroke-opacity="0.5" stroke-width="2"/>
<line x1="66" y1="808" x2="50" y2="808" stroke="#E6122B" stroke-opacity="0.5" stroke-width="2"/>
<line x1="58" y1="948" x2="58" y2="964" stroke="#E6122B" stroke-opacity="0.5" stroke-width="2"/>
<line x1="66" y1="956" x2="50" y2="956" stroke="#E6122B" stroke-opacity="0.5" stroke-width="2"/>
<line x1="1042" y1="504" x2="1042" y2="520" stroke="#E6122B" stroke-opacity="0.5" stroke-width="2"/>
<line x1="1050" y1="512" x2="1034" y2="512" stroke="#E6122B" stroke-opacity="0.5" stroke-width="2"/>
<line x1="1042" y1="652" x2="1042" y2="668" stroke="#E6122B" stroke-opacity="0.5" stroke-width="2"/>
<line x1="1050" y1="660" x2="1034" y2="660" stroke="#E6122B" stroke-opacity="0.5" stroke-width="2"/>
<line x1="1042" y1="800" x2="1042" y2="816" stroke="#E6122B" stroke-opacity="0.5" stroke-width="2"/>
<line x1="1050" y1="808" x2="1034" y2="808" stroke="#E6122B" stroke-opacity="0.5" stroke-width="2"/>
<line x1="1042" y1="948" x2="1042" y2="964" stroke="#E6122B" stroke-opacity="0.5" stroke-width="2"/>
<line x1="1050" y1="956" x2="1034" y2="956" stroke="#E6122B" stroke-opacity="0.5" stroke-width="2"/>
<line x1="222" y1="60" x2="222" y2="76" stroke="#E6122B" stroke-opacity="0.5" stroke-width="2"/>
<line x1="230" y1="68" x2="214" y2="68" stroke="#E6122B" stroke-opacity="0.5" stroke-width="2"/>
<line x1="1206" y1="60" x2="1206" y2="76" stroke="#E6122B" stroke-opacity="0.5" stroke-width="2"/>
<line x1="1214" y1="68" x2="1198" y2="68" stroke="#E6122B" stroke-opacity="0.5" stroke-width="2"/>
<line x1="222" y1="356" x2="222" y2="372" stroke="#E6122B" stroke-opacity="0.5" stroke-width="2"/>
<line x1="230" y1="364" x2="214" y2="364" stroke="#E6122B" stroke-opacity="0.5" stroke-width="2"/>
<line x1="1206" y1="356" x2="1206" y2="372" stroke="#E6122B" stroke-opacity="0.5" stroke-width="2"/>
<line x1="1214" y1="364" x2="1198" y2="364" stroke="#E6122B" stroke-opacity="0.5" stroke-width="2"/>
<line x1="222" y1="208" x2="222" y2="224" stroke="#E6122B" stroke-opacity="0.5" stroke-width="2"/>
<line x1="230" y1="216" x2="214" y2="216" stroke="#E6122B" stroke-opacity="0.5" stroke-width="2"/>
<line x1="1206" y1="208" x2="1206" y2="224" stroke="#E6122B" stroke-opacity="0.5" stroke-width="2"/>
<line x1="1214" y1="216" x2="1198" y2="216" stroke="#E6122B" stroke-opacity="0.5" stroke-width="2"/>
<line x1="222" y1="504" x2="222" y2="520" stroke="#E6122B" stroke-opacity="0.5" stroke-width="2"/>
<line x1="230" y1="512" x2="214" y2="512" stroke="#E6122B" stroke-opacity="0.5" stroke-width="2"/>
<line x1="222" y1="652" x2="222" y2="668" stroke="#E6122B" stroke-opacity="0.5" stroke-width="2"/>
<line x1="230" y1="660" x2="214" y2="660" stroke="#E6122B" stroke-opacity="0.5" stroke-width="2"/>
<line x1="222" y1="800" x2="222" y2="816" stroke="#E6122B" stroke-opacity="0.5" stroke-width="2"/>
<line x1="230" y1="808" x2="214" y2="808" stroke="#E6122B" stroke-opacity="0.5" stroke-width="2"/>
<line x1="222" y1="948" x2="222" y2="964" stroke="#E6122B" stroke-opacity="0.5" stroke-width="2"/>
<line x1="230" y1="956" x2="214" y2="956" stroke="#E6122B" stroke-opacity="0.5" stroke-width="2"/>
<line x1="1206" y1="504" x2="1206" y2="520" stroke="#E6122B" stroke-opacity="0.5" stroke-width="2"/>
<line x1="1214" y1="512" x2="1198" y2="512" stroke="#E6122B" stroke-opacity="0.5" stroke-width="2"/>
<line x1="1206" y1="652" x2="1206" y2="668" stroke="#E6122B" stroke-opacity="0.5" stroke-width="2"/>
<line x1="1214" y1="660" x2="1198" y2="660" stroke="#E6122B" stroke-opacity="0.5" stroke-width="2"/>
<line x1="1206" y1="800" x2="1206" y2="816" stroke="#E6122B" stroke-opacity="0.5" stroke-width="2"/>
<line x1="1214" y1="808" x2="1198" y2="808" stroke="#E6122B" stroke-opacity="0.5" stroke-width="2"/>
<line x1="1206" y1="948" x2="1206" y2="964" stroke="#E6122B" stroke-opacity="0.5" stroke-width="2"/>
<line x1="1214" y1="956" x2="1198" y2="956" stroke="#E6122B" stroke-opacity="0.5" stroke-width="2"/>
<line x1="386" y1="60" x2="386" y2="76" stroke="#E6122B" stroke-opacity="0.5" stroke-width="2"/>
<line x1="394" y1="68" x2="378" y2="68" stroke="#E6122B" stroke-opacity="0.5" stroke-width="2"/>
<line x1="1370" y1="60" x2="1370" y2="76" stroke="#E6122B" stroke-opacity="0.5" stroke-width="2"/>
<line x1="1378" y1="68" x2="1362" y2="68" stroke="#E6122B" stroke-opacity="0.5" stroke-width="2"/>
<line x1="550" y1="60" x2="550" y2="76" stroke="#E6122B" stroke-opacity="0.5" stroke-width="2"/>
<line x1="558" y1="68" x2="542" y2="68" stroke="#E6122B" stroke-opacity="0.5" stroke-width="2"/>
<line x1="1534" y1="60" x2="1534" y2="76" stroke="#E6122B" stroke-opacity="0.5" stroke-width="2"/>
<line x1="1542" y1="68" x2="1526" y2="68" stroke="#E6122B" stroke-opacity="0.5" stroke-width="2"/>
<line x1="878" y1="60" x2="878" y2="76" stroke="#E6122B" stroke-opacity="0.5" stroke-width="2"/>
<line x1="886" y1="68" x2="870" y2="68" stroke="#E6122B" stroke-opacity="0.5" stroke-width="2"/>
<line x1="1862" y1="60" x2="1862" y2="76" stroke="#E6122B" stroke-opacity="0.5" stroke-width="2"/>
<line x1="1870" y1="68" x2="1854" y2="68" stroke="#E6122B" stroke-opacity="0.5" stroke-width="2"/>
<line x1="386" y1="356" x2="386" y2="372" stroke="#E6122B" stroke-opacity="0.5" stroke-width="2"/>
<line x1="394" y1="364" x2="378" y2="364" stroke="#E6122B" stroke-opacity="0.5" stroke-width="2"/>
<line x1="1370" y1="356" x2="1370" y2="372" stroke="#E6122B" stroke-opacity="0.5" stroke-width="2"/>
<line x1="1378" y1="364" x2="1362" y2="364" stroke="#E6122B" stroke-opacity="0.5" stroke-width="2"/>
<line x1="714" y1="356" x2="714" y2="372" stroke="#E6122B" stroke-opacity="0.5" stroke-width="2"/>
<line x1="722" y1="364" x2="706" y2="364" stroke="#E6122B" stroke-opacity="0.5" stroke-width="2"/>
<line x1="1698" y1="356" x2="1698" y2="372" stroke="#E6122B" stroke-opacity="0.5" stroke-width="2"/>
<line x1="1706" y1="364" x2="1690" y2="364" stroke="#E6122B" stroke-opacity="0.5" stroke-width="2"/>
<line x1="550" y1="356" x2="550" y2="372" stroke="#E6122B" stroke-opacity="0.5" stroke-width="2"/>
<line x1="558" y1="364" x2="542" y2="364" stroke="#E6122B" stroke-opacity="0.5" stroke-width="2"/>
<line x1="1534" y1="356" x2="1534" y2="372" stroke="#E6122B" stroke-opacity="0.5" stroke-width="2"/>
<line x1="1542" y1="364" x2="1526" y2="364" stroke="#E6122B" stroke-opacity="0.5" stroke-width="2"/>
<line x1="878" y1="356" x2="878" y2="372" stroke="#E6122B" stroke-opacity="0.5" stroke-width="2"/>
<line x1="886" y1="364" x2="870" y2="364" stroke="#E6122B" stroke-opacity="0.5" stroke-width="2"/>
<line x1="1862" y1="356" x2="1862" y2="372" stroke="#E6122B" stroke-opacity="0.5" stroke-width="2"/>
<line x1="1870" y1="364" x2="1854" y2="364" stroke="#E6122B" stroke-opacity="0.5" stroke-width="2"/>
<line x1="386" y1="208" x2="386" y2="224" stroke="#E6122B" stroke-opacity="0.5" stroke-width="2"/>
<line x1="394" y1="216" x2="378" y2="216" stroke="#E6122B" stroke-opacity="0.5" stroke-width="2"/>
<line x1="1370" y1="208" x2="1370" y2="224" stroke="#E6122B" stroke-opacity="0.5" stroke-width="2"/>
<line x1="1378" y1="216" x2="1362" y2="216" stroke="#E6122B" stroke-opacity="0.5" stroke-width="2"/>
<line x1="714" y1="208" x2="714" y2="224" stroke="#E6122B" stroke-opacity="0.5" stroke-width="2"/>
<line x1="722" y1="216" x2="706" y2="216" stroke="#E6122B" stroke-opacity="0.5" stroke-width="2"/>
<line x1="714" y1="60" x2="714" y2="76" stroke="#E6122B" stroke-opacity="0.5" stroke-width="2"/>
<line x1="722" y1="68" x2="706" y2="68" stroke="#E6122B" stroke-opacity="0.5" stroke-width="2"/>
<line x1="1698" y1="208" x2="1698" y2="224" stroke="#E6122B" stroke-opacity="0.5" stroke-width="2"/>
<line x1="1706" y1="216" x2="1690" y2="216" stroke="#E6122B" stroke-opacity="0.5" stroke-width="2"/>
<line x1="1698" y1="59" x2="1698" y2="75" stroke="#E6122B" stroke-opacity="0.5" stroke-width="2"/>
<line x1="1706" y1="67" x2="1690" y2="67" stroke="#E6122B" stroke-opacity="0.5" stroke-width="2"/>
<line x1="550" y1="208" x2="550" y2="224" stroke="#E6122B" stroke-opacity="0.5" stroke-width="2"/>
<line x1="558" y1="216" x2="542" y2="216" stroke="#E6122B" stroke-opacity="0.5" stroke-width="2"/>
<line x1="1534" y1="208" x2="1534" y2="224" stroke="#E6122B" stroke-opacity="0.5" stroke-width="2"/>
<line x1="1542" y1="216" x2="1526" y2="216" stroke="#E6122B" stroke-opacity="0.5" stroke-width="2"/>
<line x1="878" y1="208" x2="878" y2="224" stroke="#E6122B" stroke-opacity="0.5" stroke-width="2"/>
<line x1="886" y1="216" x2="870" y2="216" stroke="#E6122B" stroke-opacity="0.5" stroke-width="2"/>
<line x1="1862" y1="208" x2="1862" y2="224" stroke="#E6122B" stroke-opacity="0.5" stroke-width="2"/>
<line x1="1870" y1="216" x2="1854" y2="216" stroke="#E6122B" stroke-opacity="0.5" stroke-width="2"/>
<line x1="386" y1="504" x2="386" y2="520" stroke="#E6122B" stroke-opacity="0.5" stroke-width="2"/>
<line x1="394" y1="512" x2="378" y2="512" stroke="#E6122B" stroke-opacity="0.5" stroke-width="2"/>
<line x1="386" y1="652" x2="386" y2="668" stroke="#E6122B" stroke-opacity="0.5" stroke-width="2"/>
<line x1="394" y1="660" x2="378" y2="660" stroke="#E6122B" stroke-opacity="0.5" stroke-width="2"/>
<line x1="386" y1="800" x2="386" y2="816" stroke="#E6122B" stroke-opacity="0.5" stroke-width="2"/>
<line x1="394" y1="808" x2="378" y2="808" stroke="#E6122B" stroke-opacity="0.5" stroke-width="2"/>
<line x1="386" y1="948" x2="386" y2="964" stroke="#E6122B" stroke-opacity="0.5" stroke-width="2"/>
<line x1="394" y1="956" x2="378" y2="956" stroke="#E6122B" stroke-opacity="0.5" stroke-width="2"/>
<line x1="1370" y1="504" x2="1370" y2="520" stroke="#E6122B" stroke-opacity="0.5" stroke-width="2"/>
<line x1="1378" y1="512" x2="1362" y2="512" stroke="#E6122B" stroke-opacity="0.5" stroke-width="2"/>
<line x1="1370" y1="652" x2="1370" y2="668" stroke="#E6122B" stroke-opacity="0.5" stroke-width="2"/>
<line x1="1378" y1="660" x2="1362" y2="660" stroke="#E6122B" stroke-opacity="0.5" stroke-width="2"/>
<line x1="1370" y1="800" x2="1370" y2="816" stroke="#E6122B" stroke-opacity="0.5" stroke-width="2"/>
<line x1="1378" y1="808" x2="1362" y2="808" stroke="#E6122B" stroke-opacity="0.5" stroke-width="2"/>
<line x1="1370" y1="948" x2="1370" y2="964" stroke="#E6122B" stroke-opacity="0.5" stroke-width="2"/>
<line x1="1378" y1="956" x2="1362" y2="956" stroke="#E6122B" stroke-opacity="0.5" stroke-width="2"/>
<line x1="714" y1="504" x2="714" y2="520" stroke="#E6122B" stroke-opacity="0.5" stroke-width="2"/>
<line x1="722" y1="512" x2="706" y2="512" stroke="#E6122B" stroke-opacity="0.5" stroke-width="2"/>
<line x1="714" y1="652" x2="714" y2="668" stroke="#E6122B" stroke-opacity="0.5" stroke-width="2"/>
<line x1="722" y1="660" x2="706" y2="660" stroke="#E6122B" stroke-opacity="0.5" stroke-width="2"/>
<line x1="714" y1="800" x2="714" y2="816" stroke="#E6122B" stroke-opacity="0.5" stroke-width="2"/>
<line x1="722" y1="808" x2="706" y2="808" stroke="#E6122B" stroke-opacity="0.5" stroke-width="2"/>
<line x1="714" y1="948" x2="714" y2="964" stroke="#E6122B" stroke-opacity="0.5" stroke-width="2"/>
<line x1="722" y1="956" x2="706" y2="956" stroke="#E6122B" stroke-opacity="0.5" stroke-width="2"/>
<line x1="1698" y1="504" x2="1698" y2="520" stroke="#E6122B" stroke-opacity="0.5" stroke-width="2"/>
<line x1="1706" y1="512" x2="1690" y2="512" stroke="#E6122B" stroke-opacity="0.5" stroke-width="2"/>
<line x1="1698" y1="652" x2="1698" y2="668" stroke="#E6122B" stroke-opacity="0.5" stroke-width="2"/>
<line x1="1706" y1="660" x2="1690" y2="660" stroke="#E6122B" stroke-opacity="0.5" stroke-width="2"/>
<line x1="1698" y1="800" x2="1698" y2="816" stroke="#E6122B" stroke-opacity="0.5" stroke-width="2"/>
<line x1="1706" y1="808" x2="1690" y2="808" stroke="#E6122B" stroke-opacity="0.5" stroke-width="2"/>
<line x1="1698" y1="948" x2="1698" y2="964" stroke="#E6122B" stroke-opacity="0.5" stroke-width="2"/>
<line x1="1706" y1="956" x2="1690" y2="956" stroke="#E6122B" stroke-opacity="0.5" stroke-width="2"/>
<line x1="550" y1="504" x2="550" y2="520" stroke="#E6122B" stroke-opacity="0.5" stroke-width="2"/>
<line x1="558" y1="512" x2="542" y2="512" stroke="#E6122B" stroke-opacity="0.5" stroke-width="2"/>
<line x1="550" y1="652" x2="550" y2="668" stroke="#E6122B" stroke-opacity="0.5" stroke-width="2"/>
<line x1="558" y1="660" x2="542" y2="660" stroke="#E6122B" stroke-opacity="0.5" stroke-width="2"/>
<line x1="550" y1="800" x2="550" y2="816" stroke="#E6122B" stroke-opacity="0.5" stroke-width="2"/>
<line x1="558" y1="808" x2="542" y2="808" stroke="#E6122B" stroke-opacity="0.5" stroke-width="2"/>
<line x1="550" y1="948" x2="550" y2="964" stroke="#E6122B" stroke-opacity="0.5" stroke-width="2"/>
<line x1="558" y1="956" x2="542" y2="956" stroke="#E6122B" stroke-opacity="0.5" stroke-width="2"/>
<line x1="1534" y1="504" x2="1534" y2="520" stroke="#E6122B" stroke-opacity="0.5" stroke-width="2"/>
<line x1="1542" y1="512" x2="1526" y2="512" stroke="#E6122B" stroke-opacity="0.5" stroke-width="2"/>
<line x1="1534" y1="652" x2="1534" y2="668" stroke="#E6122B" stroke-opacity="0.5" stroke-width="2"/>
<line x1="1542" y1="660" x2="1526" y2="660" stroke="#E6122B" stroke-opacity="0.5" stroke-width="2"/>
<line x1="1534" y1="800" x2="1534" y2="816" stroke="#E6122B" stroke-opacity="0.5" stroke-width="2"/>
<line x1="1542" y1="808" x2="1526" y2="808" stroke="#E6122B" stroke-opacity="0.5" stroke-width="2"/>
<line x1="1534" y1="948" x2="1534" y2="964" stroke="#E6122B" stroke-opacity="0.5" stroke-width="2"/>
<line x1="1542" y1="956" x2="1526" y2="956" stroke="#E6122B" stroke-opacity="0.5" stroke-width="2"/>
<line x1="878" y1="504" x2="878" y2="520" stroke="#E6122B" stroke-opacity="0.5" stroke-width="2"/>
<line x1="886" y1="512" x2="870" y2="512" stroke="#E6122B" stroke-opacity="0.5" stroke-width="2"/>
<line x1="878" y1="652" x2="878" y2="668" stroke="#E6122B" stroke-opacity="0.5" stroke-width="2"/>
<line x1="886" y1="660" x2="870" y2="660" stroke="#E6122B" stroke-opacity="0.5" stroke-width="2"/>
<line x1="878" y1="800" x2="878" y2="816" stroke="#E6122B" stroke-opacity="0.5" stroke-width="2"/>
<line x1="886" y1="808" x2="870" y2="808" stroke="#E6122B" stroke-opacity="0.5" stroke-width="2"/>
<line x1="878" y1="948" x2="878" y2="964" stroke="#E6122B" stroke-opacity="0.5" stroke-width="2"/>
<line x1="886" y1="956" x2="870" y2="956" stroke="#E6122B" stroke-opacity="0.5" stroke-width="2"/>
<line x1="1862" y1="504" x2="1862" y2="520" stroke="#E6122B" stroke-opacity="0.5" stroke-width="2"/>
<line x1="1870" y1="512" x2="1854" y2="512" stroke="#E6122B" stroke-opacity="0.5" stroke-width="2"/>
<line x1="1862" y1="652" x2="1862" y2="668" stroke="#E6122B" stroke-opacity="0.5" stroke-width="2"/>
<line x1="1870" y1="660" x2="1854" y2="660" stroke="#E6122B" stroke-opacity="0.5" stroke-width="2"/>
<line x1="1862" y1="800" x2="1862" y2="816" stroke="#E6122B" stroke-opacity="0.5" stroke-width="2"/>
<line x1="1870" y1="808" x2="1854" y2="808" stroke="#E6122B" stroke-opacity="0.5" stroke-width="2"/>
<line x1="1862" y1="948" x2="1862" y2="964" stroke="#E6122B" stroke-opacity="0.5" stroke-width="2"/>
<line x1="1870" y1="956" x2="1854" y2="956" stroke="#E6122B" stroke-opacity="0.5" stroke-width="2"/>
</svg>
