<svg width="360" height="640" viewBox="0 0 360 640" fill="none" xmlns="http://www.w3.org/2000/svg">
<rect x="10.9382" y="561.498" width="67.9058" height="67.9058" rx="6" fill="#12C0E6" fill-opacity="0.7"/>
<rect x="101.126" y="561.498" width="67.9058" height="67.9058" rx="6" fill="#12C0E6" fill-opacity="0.7"/>
<rect x="10.9382" y="471.311" width="67.9058" height="67.9058" rx="6" fill="#12C0E6" fill-opacity="0.7"/>
<rect x="191.313" y="471.311" width="67.9058" height="67.9058" rx="6" fill="#12C0E6" fill-opacity="0.7"/>
<rect x="191.313" y="561.498" width="67.9058" height="67.9058" rx="6" fill="#12C0E6" fill-opacity="0.7"/>
<rect x="280.44" y="471.311" width="67.9058" height="67.9058" rx="6" fill="#12C0E6" fill-opacity="0.7"/>
<rect x="191.313" y="381.123" width="67.9058" height="67.9058" rx="6" fill="#12C0E6" fill-opacity="0.7"/>
<rect x="280.44" y="381.123" width="67.9058" height="67.9058" rx="6" fill="#12C0E6" fill-opacity="0.7"/>
<rect x="101.126" y="471.311" width="67.9058" height="67.9058" rx="6" fill="#12C0E6" fill-opacity="0.7"/>
<rect x="101.126" y="381.123" width="67.9058" height="67.9058" rx="6" fill="#12C0E6" fill-opacity="0.7"/>
<rect x="10.9382" y="290.936" width="67.9058" height="67.9058" rx="6" fill="#12C0E6" fill-opacity="0.7"/>
<rect x="191.313" y="290.936" width="67.9058" height="67.9058" rx="6" fill="#12C0E6" fill-opacity="0.7"/>
<rect x="280.44" y="290.936" width="67.9058" height="67.9058" rx="6" fill="#12C0E6" fill-opacity="0.7"/>
<rect x="101.126" y="290.936" width="67.9058" height="67.9058" rx="6" fill="#12C0E6" fill-opacity="0.7"/>
<rect x="10.9382" y="200.748" width="67.9058" height="67.9058" rx="6" fill="#12C0E6" fill-opacity="0.7"/>
<rect x="10.9382" y="200.748" width="67.9058" height="67.9058" rx="6" fill="#12C0E6" fill-opacity="0.7"/>
<rect x="10.9382" y="110.561" width="67.9058" height="67.9058" rx="6" fill="#12C0E6" fill-opacity="0.7"/>
<rect x="10.9382" y="20.3734" width="67.9058" height="67.9058" rx="6" fill="#12C0E6" fill-opacity="0.7"/>
<rect x="191.313" y="200.748" width="67.9058" height="67.9058" rx="6" fill="#12C0E6" fill-opacity="0.7"/>
<rect x="191.313" y="200.748" width="67.9058" height="67.9058" rx="6" fill="#12C0E6" fill-opacity="0.7"/>
<rect x="101.126" y="110.561" width="67.9058" height="67.9058" rx="6" fill="#12C0E6" fill-opacity="0.7"/>
<rect x="101.126" y="20.3734" width="67.9058" height="67.9058" rx="6" fill="#12C0E6" fill-opacity="0.7"/>
<rect x="280.44" y="200.748" width="67.9058" height="67.9058" rx="6" fill="#12C0E6" fill-opacity="0.7"/>
<rect x="280.44" y="110.561" width="67.9058" height="67.9058" rx="6" fill="#12C0E6" fill-opacity="0.7"/>
<rect x="280.44" y="20.3734" width="67.9058" height="67.9058" rx="6" fill="#12C0E6" fill-opacity="0.7"/>
</svg>
